<?xml version="1.0" encoding="UTF-8"?>
<svg version="1.1" xmlns="http://www.w3.org/2000/svg" width="605" height="605">
<path d="M0 0 C2.87771563 2.05828379 4.72505685 3.67670506 5.46376419 7.23208618 C5.65271575 10.08864192 5.67533872 12.90675997 5.64697266 15.76953125 C5.66011505 17.39717911 5.66011505 17.39717911 5.67352295 19.05770874 C5.69552199 22.64304641 5.68096105 26.22714988 5.6640625 29.8125 C5.66743045 32.30444577 5.67228289 34.79638994 5.67855835 37.28833008 C5.68687447 43.17913663 5.66938142 49.06949559 5.6428045 54.96023655 C5.62403101 59.6556383 5.63067158 64.35051613 5.65185547 69.04589844 C5.68082501 75.52272742 5.68538955 81.99904996 5.66907883 88.47592163 C5.6657422 90.94469318 5.66984084 93.41348628 5.68147659 95.88223267 C5.69416845 99.33222679 5.67482855 102.78059575 5.64697266 106.23046875 C5.65709381 107.25191986 5.66721497 108.27337097 5.67764282 109.32577515 C5.6086279 113.9370069 5.54531151 116.25858787 2.75462341 120.05284119 C0.21436393 121.84847271 -1.77453257 122.98991421 -4.72094727 123.92407227 C-5.63746567 124.22256577 -6.55398407 124.52105927 -7.49827576 124.82859802 C-8.49013382 125.13394974 -9.48199188 125.43930145 -10.50390625 125.75390625 C-11.56017715 126.09208878 -12.61644806 126.4302713 -13.70472717 126.77870178 C-17.13131106 127.86972344 -20.56471475 128.93672176 -24 130 C-26.24987992 130.70412796 -28.49971714 131.40839237 -30.74951172 132.11279297 C-37.46803583 134.20615875 -44.19641806 136.26684336 -50.92648697 138.32270432 C-54.41095327 139.38795591 -57.89429926 140.45685779 -61.37768555 141.52563477 C-62.84162896 141.97477746 -64.30557244 142.42391991 -65.76951599 142.87306213 C-66.50650663 143.09918245 -67.24349728 143.32530277 -68.00282097 143.55827522 C-70.27617471 144.25563266 -72.54964211 144.95261846 -74.82313538 145.64952087 C-90.42690215 150.43330827 -106.02187154 155.24551347 -121.61585426 160.06108284 C-126.73961255 161.64332161 -131.86364987 163.22465198 -136.98796272 164.80509377 C-153.88569399 170.01670791 -170.78025979 175.23805668 -187.66472816 180.4924984 C-192.44227359 181.97864429 -197.22069859 183.46196002 -201.99914837 184.9451952 C-206.48508821 186.33805466 -210.96944054 187.73588049 -215.45265388 189.13748932 C-218.18959257 189.99190012 -220.92795038 190.84168641 -223.66673279 191.69016647 C-225.52801411 192.26837576 -227.3875111 192.85231915 -229.24694824 193.43643188 C-230.34986206 193.77717743 -231.45277588 194.11792297 -232.58911133 194.46899414 C-233.54392899 194.76665176 -234.49874664 195.06430939 -235.48249817 195.37098694 C-238 196 -238 196 -242 196 C-242 196.66 -242 197.32 -242 198 C-241.35675781 198.22300781 -240.71351563 198.44601562 -240.05078125 198.67578125 C-235.86966936 200.49063007 -232.078831 202.82364674 -228.1875 205.1875 C-226.90069336 205.96468384 -226.90069336 205.96468384 -225.58789062 206.75756836 C-218.3593227 211.13979078 -211.17362557 215.59103264 -204 220.0625 C-202.96770264 220.70533936 -201.93540527 221.34817871 -200.87182617 222.01049805 C-199.90349854 222.61676025 -198.9351709 223.22302246 -197.9375 223.84765625 C-197.08027344 224.38398682 -196.22304688 224.92031738 -195.33984375 225.47290039 C-194.18162109 226.2288147 -194.18162109 226.2288147 -193 227 C-192.30166172 227.42196309 -191.60332344 227.84392618 -190.88382339 228.27867603 C-189 230 -189 230 -188.50780869 232.30569744 C-188.51333944 233.67317733 -188.51333944 233.67317733 -188.51898193 235.06828308 C-188.51348328 236.11576218 -188.50798462 237.16324127 -188.50231934 238.24246216 C-188.52389099 239.96552078 -188.52389099 239.96552078 -188.54589844 241.72338867 C-188.54531433 242.9332695 -188.54473022 244.14315033 -188.54412842 245.38969421 C-188.5464395 248.70798204 -188.56651272 252.0252772 -188.59442425 255.34338927 C-188.61941198 258.81070904 -188.6217778 262.27804171 -188.62652588 265.74543762 C-188.63896347 272.31158581 -188.67179539 278.87746794 -188.71192384 285.44349891 C-188.75661741 292.91860026 -188.77862246 300.39371424 -188.79870558 307.86891592 C-188.84052757 323.24609809 -188.91089452 338.62301475 -189 354 C-192.17204557 352.75469351 -195.09892888 351.46567738 -198.01953125 349.70703125 C-198.78177002 349.2495752 -199.54400879 348.79211914 -200.3293457 348.32080078 C-201.14878662 347.82306152 -201.96822754 347.32532227 -202.8125 346.8125 C-203.68414795 346.28640137 -204.5557959 345.76030273 -205.45385742 345.21826172 C-213.30578837 340.46065023 -221.08714806 335.59153608 -228.86254883 330.71020508 C-235.70815536 326.41690168 -242.58904559 322.18720093 -249.5 318 C-257.37316834 313.22883171 -265.20179378 308.39272008 -273 303.5 C-281.81153999 297.9721706 -290.66879249 292.52640375 -299.56201172 287.13110352 C-308.54477455 281.67876822 -317.47971534 276.15108838 -326.40722656 270.60888672 C-329.89463092 268.44485708 -333.38442379 266.28469826 -336.87451172 264.125 C-338.61345093 263.04871402 -340.35206226 261.97189808 -342.09033203 260.89453125 C-346.65818087 258.0639936 -351.23136846 255.24259091 -355.8125 252.43359375 C-356.76447266 251.84835937 -357.71644531 251.263125 -358.69726562 250.66015625 C-360.5172133 249.54155426 -362.33874093 248.42551728 -364.16210938 247.3125 C-375.42314135 240.3812775 -375.42314135 240.3812775 -379.25 234.5 C-380.00023437 233.37078125 -380.00023437 233.37078125 -380.765625 232.21875 C-382.73559255 228.67779567 -383.12514192 225.50546015 -383.14717102 221.49049377 C-383.15432632 220.59190643 -383.16148163 219.69331909 -383.16885376 218.76750183 C-383.17288712 217.30006279 -383.17288712 217.30006279 -383.17700195 215.80297852 C-383.18357315 214.76679382 -383.19014435 213.73060913 -383.19691467 212.6630249 C-383.21662234 209.23498461 -383.22830244 205.80698801 -383.23828125 202.37890625 C-383.24235678 201.20833113 -383.2464323 200.037756 -383.25063133 198.83170891 C-383.27147761 192.64033052 -383.28578766 186.44897423 -383.29516602 180.25756836 C-383.30624935 173.85709314 -383.34067587 167.45696375 -383.38033772 161.05661106 C-383.4064472 156.1384363 -383.41485264 151.22034484 -383.41844749 146.30210686 C-383.42332524 143.94216504 -383.43497281 141.58222723 -383.45348549 139.22235298 C-383.47776379 135.92342541 -383.47693269 132.62540508 -383.4699707 129.32641602 C-383.48278076 128.35014755 -383.49559082 127.37387909 -383.50878906 126.36802673 C-383.47632765 122.15406896 -383.38486339 119.66072592 -381.23146057 115.96380615 C-379.03628908 114.03193636 -377.59582277 113.09878282 -374.82666016 112.25268555 C-373.99432358 111.98916794 -373.161987 111.72565033 -372.3044281 111.45414734 C-371.39185745 111.1843959 -370.4792868 110.91464447 -369.5390625 110.63671875 C-368.56062881 110.33244461 -367.58219513 110.02817047 -366.57411194 109.7146759 C-363.26252597 108.6893205 -359.94395445 107.68872499 -356.625 106.6875 C-354.22453674 105.94947457 -351.82456672 105.20984328 -349.42504883 104.46875 C-344.14417001 102.84111824 -338.86025919 101.2239213 -333.57373047 99.61474609 C-325.45593547 97.14311141 -317.34599536 94.64636405 -309.23761177 92.1440506 C-296.18920184 88.11721837 -283.13777643 84.10029772 -270.08358574 80.09224701 C-249.78709923 73.86054028 -229.49775642 67.60586258 -209.21124649 61.34176254 C-205.84147065 60.30126973 -202.47164266 59.26094585 -199.10181522 58.22062016 C-189.77966414 55.34269644 -180.45765541 52.46431183 -171.13568115 49.58581543 C-155.59065197 44.78573602 -140.04544461 39.98623384 -124.5 35.1875 C-123.66120678 34.92856712 -122.82241356 34.66963425 -121.95820236 34.40285492 C-49.45487888 12.02158863 -49.45487888 12.02158863 -23.11340332 3.96200562 C-20.89471014 3.27645508 -18.6798313 2.57850819 -16.46765137 1.8722229 C-15.31011353 1.50551483 -14.15257568 1.13880676 -12.95996094 0.76098633 C-11.91386658 0.42553299 -10.86777222 0.09007965 -9.78997803 -0.25553894 C-5.88131785 -1.29850246 -3.82000456 -1.35291828 0 0 Z " fill="#048C8C" transform="translate(493,207)"/>
<path d="M0 0 C3.03643747 2.62473556 4.67427686 4.34931708 5.4559164 8.31046963 C5.64461606 11.14897248 5.66408329 13.94660552 5.63110352 16.79125977 C5.64183647 18.40449631 5.64183647 18.40449631 5.65278625 20.05032349 C5.66966576 23.59778591 5.65027474 27.14398345 5.62890625 30.69140625 C5.62973495 33.15950119 5.63219435 35.62759607 5.63621521 38.09568787 C5.63907265 43.26472615 5.62437529 48.43333099 5.59692383 53.60229492 C5.56282411 60.2292448 5.56886617 66.85542052 5.5875864 73.48240757 C5.59815192 78.57735146 5.58922278 83.67211504 5.57420158 88.76704216 C5.56901728 91.21068728 5.56950456 93.65435121 5.57574654 96.09799385 C5.58119374 99.51178658 5.56083818 102.92446857 5.53344727 106.33813477 C5.54323608 107.85392876 5.54323608 107.85392876 5.55322266 109.40034485 C5.49488114 113.67435174 5.40518864 116.29841213 3.23776245 120.05133057 C1.00119314 121.998961 -0.53168625 122.9523766 -3.33764648 123.84057617 C-4.21477798 124.12661209 -5.09190948 124.41264801 -5.99562073 124.70735168 C-6.96515182 125.00373032 -7.93468292 125.30010895 -8.93359375 125.60546875 C-10.50299965 126.10641304 -10.50299965 126.10641304 -12.10411072 126.61747742 C-15.08194632 127.56078965 -18.06448679 128.48669199 -21.05098724 129.40215302 C-23.04575628 130.01403544 -25.03925494 130.62991808 -27.03253174 131.24664307 C-36.30309891 134.11188797 -45.58707479 136.93218532 -54.87451172 139.7421875 C-63.96218916 142.4918201 -73.04571593 145.25511818 -82.12890625 148.01953125 C-83.06964115 148.30576984 -84.01037605 148.59200844 -84.97961807 148.88692093 C-105.27243482 155.06360246 -125.53071572 161.34978632 -145.78403473 167.65455627 C-176.56108772 177.23504194 -207.36670289 186.71467545 -238.20739746 196.08822632 C-257.92448573 202.08134965 -277.63088134 208.10702053 -297.31640625 214.203125 C-298.28246984 214.50228758 -299.24853344 214.80145016 -300.24387169 215.10967827 C-309.6401493 218.02007473 -319.03520076 220.9344048 -328.42869473 223.85377312 C-331.85984676 224.91991036 -335.29133889 225.98495038 -338.72286797 227.04987335 C-341.04895353 227.77230989 -343.37447554 228.49653824 -345.69996643 229.22088623 C-349.14483947 230.29255796 -352.59366698 231.35055576 -356.04524231 232.40042496 C-358.01512039 233.00463782 -359.9794814 233.62498573 -361.94421387 234.24569702 C-363.1765979 234.62247589 -364.40898193 234.99925476 -365.67871094 235.38745117 C-366.75634705 235.72338791 -367.83398315 236.05932465 -368.9442749 236.40544128 C-373.83512281 237.35706362 -376.6757703 236.88267723 -380.83456421 234.1105957 C-384.00367814 229.55824083 -383.70075812 225.65862611 -383.64697266 220.23046875 C-383.65573425 219.14537018 -383.66449585 218.06027161 -383.67352295 216.94229126 C-383.69552199 213.35695359 -383.68096105 209.77285012 -383.6640625 206.1875 C-383.66743045 203.69555423 -383.67228289 201.20361006 -383.67855835 198.71166992 C-383.68687447 192.82086337 -383.66938142 186.93050441 -383.6428045 181.03976345 C-383.62403101 176.3443617 -383.63067158 171.64948387 -383.65185547 166.95410156 C-383.68082501 160.47727258 -383.68538955 154.00095004 -383.66907883 147.52407837 C-383.6657422 145.05530682 -383.66984084 142.58651372 -383.68147659 140.11776733 C-383.69416845 136.66777321 -383.67482855 133.21940425 -383.64697266 129.76953125 C-383.65709381 128.74808014 -383.66721497 127.72662903 -383.67764282 126.67422485 C-383.60756456 121.991946 -383.55874666 119.7379595 -380.665802 115.91712952 C-377.53736987 113.66729642 -374.48350753 112.44381515 -370.828125 111.37109375 C-369.74319008 111.03179337 -369.74319008 111.03179337 -368.63633728 110.68563843 C-366.17859788 109.92123787 -363.71452561 109.17970481 -361.25 108.4375 C-359.43487115 107.87794432 -357.62018895 107.31693812 -355.8059082 106.75463867 C-351.75764338 105.50334044 -347.70640603 104.26230979 -343.65283203 103.02832031 C-336.68918019 100.90792992 -329.73299128 98.76366519 -322.77734375 96.6171875 C-314.83433101 94.16747359 -306.89064137 91.72002052 -298.94433594 89.28100586 C-276.85278109 82.50002876 -254.77489986 75.67549824 -232.70114517 68.83681488 C-204.68157445 60.15635077 -176.65578905 51.49670892 -148.61675358 42.87932587 C-145.36295674 41.87930057 -142.1091976 40.87915273 -138.85546875 39.87890625 C-138.21388006 39.68167717 -137.57229137 39.48444809 -136.9112606 39.28124237 C-124.95293663 35.60470015 -112.99940964 31.9127132 -101.04716492 28.21646118 C-93.77597634 25.9678807 -86.50438416 23.7206379 -79.23120117 21.47851562 C-78.53459287 21.26374887 -77.83798456 21.04898212 -77.12026691 20.82770729 C-71.46881603 19.08536068 -71.46881603 19.08536068 -68.82102394 18.26929855 C-60.60922257 15.73802449 -52.40216864 13.19243437 -44.20137024 10.62567139 C-39.89582433 9.27987932 -35.58735845 7.94362753 -31.27816772 6.60955811 C-29.33144977 6.00430248 -27.38610117 5.39462121 -25.44229126 4.78009033 C-22.81522382 3.94990248 -20.18380028 3.1352959 -17.55078125 2.32421875 C-16.8071936 2.08474014 -16.06360596 1.84526154 -15.29748535 1.598526 C-10.51704083 0.14878579 -4.88553278 -1.51260932 0 0 Z " fill="#048C8C" transform="translate(493,58)"/>
<path d="M0 0 C1.01320312 0.60714844 2.02640625 1.21429688 3.0703125 1.83984375 C3.94284668 2.35744263 3.94284668 2.35744263 4.83300781 2.88549805 C6.96633468 4.16317651 9.08171146 5.46728238 11.1953125 6.77734375 C12.08702148 7.32970703 12.97873047 7.88207031 13.89746094 8.45117188 C27.07613791 16.63652099 27.07613791 16.63652099 31.53710938 19.60374451 C34.17580338 21.27319511 36.80218042 22.46023025 39.70730591 23.59777832 C44.93799378 25.84756887 49.58998014 28.26180537 53.1953125 32.77734375 C56.24115586 40.94107081 55.35267502 50.17101689 55.02040339 58.72995543 C54.90702823 62.14722848 54.89724358 65.56485554 54.87594604 68.98371887 C54.82023236 75.44234715 54.6728961 81.89541981 54.49165523 88.35161239 C54.28968643 95.70764908 54.19130914 103.06396719 54.1011374 110.42209089 C53.91353115 125.54359231 53.59743646 140.65990984 53.1953125 155.77734375 C50.02326693 154.53203726 47.09638362 153.24302113 44.17578125 151.484375 C43.41354248 151.02691895 42.65130371 150.56946289 41.8659668 150.09814453 C41.04652588 149.60040527 40.22708496 149.10266602 39.3828125 148.58984375 C38.07534058 147.8006958 38.07534058 147.8006958 36.74145508 146.99560547 C28.88952413 142.23799398 21.10816444 137.36887983 13.33276367 132.48754883 C6.48715714 128.19424543 -0.39373309 123.96454468 -7.3046875 119.77734375 C-15.17785584 115.00617546 -23.00648128 110.17006383 -30.8046875 105.27734375 C-39.61622749 99.74951435 -48.47347999 94.3037475 -57.36669922 88.90844727 C-66.34946205 83.45611197 -75.28440284 77.92843213 -84.21191406 72.38623047 C-87.69934111 70.22218676 -91.18909824 68.06192131 -94.67944336 65.90258789 C-96.41804176 64.8262511 -98.15584651 63.74863117 -99.89282227 62.66967773 C-104.46251786 59.83312226 -109.04589323 57.02262627 -113.65234375 54.24609375 C-114.60882813 53.66537109 -115.5653125 53.08464844 -116.55078125 52.48632812 C-118.38082664 51.37586369 -120.21525135 50.27257319 -122.0546875 49.17773438 C-126.42611061 46.51464432 -130.02299846 44.2157174 -132.8046875 39.77734375 C-132.8046875 39.11734375 -132.8046875 38.45734375 -132.8046875 37.77734375 C-131.4846875 37.77734375 -130.1646875 37.77734375 -128.8046875 37.77734375 C-128.8046875 37.11734375 -128.8046875 36.45734375 -128.8046875 35.77734375 C-128.26279785 35.62700684 -127.7209082 35.47666992 -127.16259766 35.32177734 C-117.64212445 32.66951665 -108.15671614 29.97957003 -98.8046875 26.77734375 C-91.47571007 24.26889936 -84.08052148 22.11207464 -76.62109375 20.02734375 C-70.95705515 18.43043419 -65.37206105 16.68273844 -59.8046875 14.77734375 C-52.55633449 12.29681774 -45.24620558 10.15900535 -37.86499023 8.11083984 C-30.3878222 6.00958938 -23.04533848 3.57264773 -15.73120117 0.96118164 C-10.13309854 -0.98404766 -5.69630109 -2.48320646 0 0 Z " fill="#036363" transform="translate(250.8046875,405.22265625)"/>
</svg>
